<?xml version="1.0" encoding="UTF-8" standalone="no"?><svg xmlns="http://www.w3.org/2000/svg" xmlns:xlink="http://www.w3.org/1999/xlink" clip-rule="evenodd" stroke-miterlimit="4.00" viewBox="0 0 433 446"><desc>SVG generated by Keynote</desc><defs></defs><g transform="matrix(1.00, 0.00, -0.00, -1.00, 0.0, 446.0)"><text xml:space="preserve" font-family="GillSans" font-size="47.9" fill="#424242" transform="matrix(1.00, 0.00, -0.00, -1.00, 0.4, 401.0)">•</text><text xml:space="preserve" font-family="GillSans-SemiBold" font-weight="bold" font-size="28.0" fill="#0073D8" transform="matrix(1.00, 0.00, -0.00, -1.00, 45.0, 408.0)">T</text><text xml:space="preserve" font-family="GillSans-SemiBold" font-weight="bold" font-size="28.0" fill="#0073D8" transform="matrix(1.00, 0.00, -0.00, -1.00, 63.6, 408.0)">h</text><text xml:space="preserve" font-family="GillSans-SemiBold" font-weight="bold" font-size="28.0" fill="#0073D8" transform="matrix(1.00, 0.00, -0.00, -1.00, 78.8, 408.0)">e</text><text xml:space="preserve" font-family="GillSans-SemiBold" font-weight="bold" font-size="28.0" fill="#0073D8" transform="matrix(1.00, 0.00, -0.00, -1.00, 93.3, 408.0)">r</text><text xml:space="preserve" font-family="GillSans-SemiBold" font-weight="bold" font-size="28.0" fill="#0073D8" transform="matrix(1.00, 0.00, -0.00, -1.00, 105.0, 408.0)">m</text><text xml:space="preserve" font-family="GillSans-SemiBold" font-weight="bold" font-size="28.0" fill="#0073D8" transform="matrix(1.00, 0.00, -0.00, -1.00, 128.7, 408.0)">o</text><text xml:space="preserve" font-family="GillSans-SemiBold" font-weight="bold" font-size="28.0" fill="#0073D8" transform="matrix(1.00, 0.00, -0.00, -1.00, 145.3, 408.0)">-</text><text xml:space="preserve" font-family="GillSans-SemiBold" font-weight="bold" font-size="28.0" fill="#0073D8" transform="matrix(1.00, 0.00, -0.00, -1.00, 154.5, 408.0)">m</text><text xml:space="preserve" font-family="GillSans-SemiBold" font-weight="bold" font-size="28.0" fill="#0073D8" transform="matrix(1.00, 0.00, -0.00, -1.00, 178.2, 408.0)">e</text><text xml:space="preserve" font-family="GillSans-SemiBold" font-weight="bold" font-size="28.0" fill="#0073D8" transform="matrix(1.00, 0.00, -0.00, -1.00, 192.6, 408.0)">c</text><text xml:space="preserve" font-family="GillSans-SemiBold" font-weight="bold" font-size="28.0" fill="#0073D8" transform="matrix(1.00, 0.00, -0.00, -1.00, 205.5, 408.0)">h</text><text xml:space="preserve" font-family="GillSans-SemiBold" font-weight="bold" font-size="28.0" fill="#0073D8" transform="matrix(1.00, 0.00, -0.00, -1.00, 220.7, 408.0)">a</text><text xml:space="preserve" font-family="GillSans-SemiBold" font-weight="bold" font-size="28.0" fill="#0073D8" transform="matrix(1.00, 0.00, -0.00, -1.00, 234.2, 408.0)">n</text><text xml:space="preserve" font-family="GillSans-SemiBold" font-weight="bold" font-size="28.0" fill="#0073D8" transform="matrix(1.00, 0.00, -0.00, -1.00, 249.4, 408.0)">i</text><text xml:space="preserve" font-family="GillSans-SemiBold" font-weight="bold" font-size="28.0" fill="#0073D8" transform="matrix(1.00, 0.00, -0.00, -1.00, 256.3, 408.0)">c</text><text xml:space="preserve" font-family="GillSans-SemiBold" font-weight="bold" font-size="28.0" fill="#0073D8" transform="matrix(1.00, 0.00, -0.00, -1.00, 269.2, 408.0)">a</text><text xml:space="preserve" font-family="GillSans-SemiBold" font-weight="bold" font-size="28.0" fill="#0073D8" transform="matrix(1.00, 0.00, -0.00, -1.00, 282.7, 408.0)">l</text><text xml:space="preserve" font-family="GillSans" font-size="28.0" fill="#0073D8" transform="matrix(1.00, 0.00, -0.00, -1.00, 289.7, 408.0)"> </text><text xml:space="preserve" font-family="GillSans-SemiBold" font-weight="bold" font-size="28.0" fill="#0073D8" transform="matrix(1.00, 0.00, -0.00, -1.00, 297.4, 408.0)">m</text><text xml:space="preserve" font-family="GillSans-SemiBold" font-weight="bold" font-size="28.0" fill="#0073D8" transform="matrix(1.00, 0.00, -0.00, -1.00, 321.1, 408.0)">o</text><text xml:space="preserve" font-family="GillSans-SemiBold" font-weight="bold" font-size="28.0" fill="#0073D8" transform="matrix(1.00, 0.00, -0.00, -1.00, 337.2, 408.0)">d</text><text xml:space="preserve" font-family="GillSans-SemiBold" font-weight="bold" font-size="28.0" fill="#0073D8" transform="matrix(1.00, 0.00, -0.00, -1.00, 352.5, 408.0)">e</text><text xml:space="preserve" font-family="GillSans-SemiBold" font-weight="bold" font-size="28.0" fill="#0073D8" transform="matrix(1.00, 0.00, -0.00, -1.00, 367.0, 408.0)">l</text><text xml:space="preserve" font-family="GillSans-SemiBold" font-weight="bold" font-size="28.0" fill="#0073D8" transform="matrix(1.00, 0.00, -0.00, -1.00, 373.9, 408.0)">s</text><text xml:space="preserve" font-family="GillSans" font-size="28.0" fill="#424242" transform="matrix(1.00, 0.00, -0.00, -1.00, 385.2, 408.0)"> </text><text xml:space="preserve" font-family="GillSans" font-size="28.0" fill="#424242" transform="matrix(1.00, 0.00, -0.00, -1.00, 45.0, 375.0)">t</text><text xml:space="preserve" font-family="GillSans" font-size="28.0" fill="#424242" transform="matrix(1.00, 0.00, -0.00, -1.00, 54.3, 375.0)">r</text><text xml:space="preserve" font-family="GillSans" font-size="28.0" fill="#424242" transform="matrix(1.00, 0.00, -0.00, -1.00, 65.4, 375.0)">u</text><text xml:space="preserve" font-family="GillSans" font-size="28.0" fill="#424242" transform="matrix(1.00, 0.00, -0.00, -1.00, 79.4, 375.0)">l</text><text xml:space="preserve" font-family="GillSans" font-size="28.0" fill="#424242" transform="matrix(1.00, 0.00, -0.00, -1.00, 85.3, 375.0)">y</text><text xml:space="preserve" font-family="GillSans" font-size="28.0" fill="#424242" transform="matrix(1.00, 0.00, -0.00, -1.00, 97.5, 375.0)"> </text><text xml:space="preserve" font-family="GillSans" font-size="28.0" fill="#424242" transform="matrix(1.00, 0.00, -0.00, -1.00, 105.3, 375.0)">s</text><text xml:space="preserve" font-family="GillSans" font-size="28.0" fill="#424242" transform="matrix(1.00, 0.00, -0.00, -1.00, 116.1, 375.0)">i</text><text xml:space="preserve" font-family="GillSans" font-size="28.0" fill="#424242" transform="matrix(1.00, 0.00, -0.00, -1.00, 122.2, 375.0)">m</text><text xml:space="preserve" font-family="GillSans" font-size="28.0" fill="#424242" transform="matrix(1.00, 0.00, -0.00, -1.00, 143.5, 375.0)">u</text><text xml:space="preserve" font-family="GillSans" font-size="28.0" fill="#424242" transform="matrix(1.00, 0.00, -0.00, -1.00, 157.5, 375.0)">l</text><text xml:space="preserve" font-family="GillSans" font-size="28.0" fill="#424242" transform="matrix(1.00, 0.00, -0.00, -1.00, 163.7, 375.0)">a</text><text xml:space="preserve" font-family="GillSans" font-size="28.0" fill="#424242" transform="matrix(1.00, 0.00, -0.00, -1.00, 175.6, 375.0)">t</text><text xml:space="preserve" font-family="GillSans" font-size="28.0" fill="#424242" transform="matrix(1.00, 0.00, -0.00, -1.00, 185.0, 375.0)">e</text><text xml:space="preserve" font-family="GillSans" font-size="28.0" fill="#424242" transform="matrix(1.00, 0.00, -0.00, -1.00, 198.4, 375.0)"> </text><text xml:space="preserve" font-family="GillSans" font-size="28.0" fill="#424242" transform="matrix(1.00, 0.00, -0.00, -1.00, 206.1, 375.0)">l</text><text xml:space="preserve" font-family="GillSans" font-size="28.0" fill="#424242" transform="matrix(1.00, 0.00, -0.00, -1.00, 212.3, 375.0)">i</text><text xml:space="preserve" font-family="GillSans" font-size="28.0" fill="#424242" transform="matrix(1.00, 0.00, -0.00, -1.00, 218.4, 375.0)">t</text><text xml:space="preserve" font-family="GillSans" font-size="28.0" fill="#424242" transform="matrix(1.00, 0.00, -0.00, -1.00, 227.8, 375.0)">h</text><text xml:space="preserve" font-family="GillSans" font-size="28.0" fill="#424242" transform="matrix(1.00, 0.00, -0.00, -1.00, 241.8, 375.0)">o</text><text xml:space="preserve" font-family="GillSans" font-size="28.0" fill="#424242" transform="matrix(1.00, 0.00, -0.00, -1.00, 257.2, 375.0)">s</text><text xml:space="preserve" font-family="GillSans" font-size="28.0" fill="#424242" transform="matrix(1.00, 0.00, -0.00, -1.00, 268.0, 375.0)">p</text><text xml:space="preserve" font-family="GillSans" font-size="28.0" fill="#424242" transform="matrix(1.00, 0.00, -0.00, -1.00, 282.0, 375.0)">h</text><text xml:space="preserve" font-family="GillSans" font-size="28.0" fill="#424242" transform="matrix(1.00, 0.00, -0.00, -1.00, 296.0, 375.0)">e</text><text xml:space="preserve" font-family="GillSans" font-size="28.0" fill="#424242" transform="matrix(1.00, 0.00, -0.00, -1.00, 309.4, 375.0)">r</text><text xml:space="preserve" font-family="GillSans" font-size="28.0" fill="#424242" transform="matrix(1.00, 0.00, -0.00, -1.00, 320.5, 375.0)">i</text><text xml:space="preserve" font-family="GillSans" font-size="28.0" fill="#424242" transform="matrix(1.00, 0.00, -0.00, -1.00, 326.6, 375.0)">c</text><text xml:space="preserve" font-family="GillSans" font-size="28.0" fill="#424242" transform="matrix(1.00, 0.00, -0.00, -1.00, 338.9, 375.0)"> </text><text xml:space="preserve" font-family="GillSans" font-size="28.0" fill="#424242" transform="matrix(1.00, 0.00, -0.00, -1.00, 45.0, 343.0)">d</text><text xml:space="preserve" font-family="GillSans" font-size="28.0" fill="#424242" transform="matrix(1.00, 0.00, -0.00, -1.00, 59.3, 343.0)">y</text><text xml:space="preserve" font-family="GillSans" font-size="28.0" fill="#424242" transform="matrix(1.00, 0.00, -0.00, -1.00, 71.5, 343.0)">n</text><text xml:space="preserve" font-family="GillSans" font-size="28.0" fill="#424242" transform="matrix(1.00, 0.00, -0.00, -1.00, 85.5, 343.0)">a</text><text xml:space="preserve" font-family="GillSans" font-size="28.0" fill="#424242" transform="matrix(1.00, 0.00, -0.00, -1.00, 97.5, 343.0)">m</text><text xml:space="preserve" font-family="GillSans" font-size="28.0" fill="#424242" transform="matrix(1.00, 0.00, -0.00, -1.00, 119.1, 343.0)">i</text><text xml:space="preserve" font-family="GillSans" font-size="28.0" fill="#424242" transform="matrix(1.00, 0.00, -0.00, -1.00, 125.2, 343.0)">c</text><text xml:space="preserve" font-family="GillSans" font-size="28.0" fill="#424242" transform="matrix(1.00, 0.00, -0.00, -1.00, 137.5, 343.0)">s</text><text xml:space="preserve" font-family="GillSans" font-size="47.9" fill="#424242" transform="matrix(1.00, 0.00, -0.00, -1.00, 35.4, 280.5)">•</text><text xml:space="preserve" font-family="GillSans" font-size="28.0" fill="#424242" transform="matrix(1.00, 0.00, -0.00, -1.00, 80.0, 287.0)">T</text><text xml:space="preserve" font-family="GillSans" font-size="28.0" fill="#424242" transform="matrix(1.00, 0.00, -0.00, -1.00, 96.9, 287.0)">h</text><text xml:space="preserve" font-family="GillSans" font-size="28.0" fill="#424242" transform="matrix(1.00, 0.00, -0.00, -1.00, 110.9, 287.0)">i</text><text xml:space="preserve" font-family="GillSans" font-size="28.0" fill="#424242" transform="matrix(1.00, 0.00, -0.00, -1.00, 117.1, 287.0)">s</text><text xml:space="preserve" font-family="GillSans" font-size="28.0" fill="#424242" transform="matrix(1.00, 0.00, -0.00, -1.00, 127.8, 287.0)"> </text><text xml:space="preserve" font-family="GillSans" font-size="28.0" fill="#424242" transform="matrix(1.00, 0.00, -0.00, -1.00, 135.6, 287.0)">t</text><text xml:space="preserve" font-family="GillSans" font-size="28.0" fill="#424242" transform="matrix(1.00, 0.00, -0.00, -1.00, 144.9, 287.0)">y</text><text xml:space="preserve" font-family="GillSans" font-size="28.0" fill="#424242" transform="matrix(1.00, 0.00, -0.00, -1.00, 157.2, 287.0)">p</text><text xml:space="preserve" font-family="GillSans" font-size="28.0" fill="#424242" transform="matrix(1.00, 0.00, -0.00, -1.00, 171.2, 287.0)">e</text><text xml:space="preserve" font-family="GillSans" font-size="28.0" fill="#424242" transform="matrix(1.00, 0.00, -0.00, -1.00, 184.6, 287.0)"> </text><text xml:space="preserve" font-family="GillSans" font-size="28.0" fill="#424242" transform="matrix(1.00, 0.00, -0.00, -1.00, 192.4, 287.0)">o</text><text xml:space="preserve" font-family="GillSans" font-size="28.0" fill="#424242" transform="matrix(1.00, 0.00, -0.00, -1.00, 207.8, 287.0)">f</text><text xml:space="preserve" font-family="GillSans" font-size="28.0" fill="#424242" transform="matrix(1.00, 0.00, -0.00, -1.00, 214.8, 287.0)"> </text><text xml:space="preserve" font-family="GillSans" font-size="28.0" fill="#424242" transform="matrix(1.00, 0.00, -0.00, -1.00, 222.6, 287.0)">m</text><text xml:space="preserve" font-family="GillSans" font-size="28.0" fill="#424242" transform="matrix(1.00, 0.00, -0.00, -1.00, 244.2, 287.0)">o</text><text xml:space="preserve" font-family="GillSans" font-size="28.0" fill="#424242" transform="matrix(1.00, 0.00, -0.00, -1.00, 259.6, 287.0)">d</text><text xml:space="preserve" font-family="GillSans" font-size="28.0" fill="#424242" transform="matrix(1.00, 0.00, -0.00, -1.00, 273.9, 287.0)">e</text><text xml:space="preserve" font-family="GillSans" font-size="28.0" fill="#424242" transform="matrix(1.00, 0.00, -0.00, -1.00, 287.3, 287.0)">l</text><text xml:space="preserve" font-family="GillSans" font-size="28.0" fill="#424242" transform="matrix(1.00, 0.00, -0.00, -1.00, 293.4, 287.0)"> </text><text xml:space="preserve" font-family="GillSans" font-size="28.0" fill="#424242" transform="matrix(1.00, 0.00, -0.00, -1.00, 301.2, 287.0)">o</text><text xml:space="preserve" font-family="GillSans" font-size="28.0" fill="#424242" transform="matrix(1.00, 0.00, -0.00, -1.00, 316.7, 287.0)">f</text><text xml:space="preserve" font-family="GillSans" font-size="28.0" fill="#424242" transform="matrix(1.00, 0.00, -0.00, -1.00, 323.7, 287.0)">f</text><text xml:space="preserve" font-family="GillSans" font-size="28.0" fill="#424242" transform="matrix(1.00, 0.00, -0.00, -1.00, 330.4, 287.0)">e</text><text xml:space="preserve" font-family="GillSans" font-size="28.0" fill="#424242" transform="matrix(1.00, 0.00, -0.00, -1.00, 343.8, 287.0)">r</text><text xml:space="preserve" font-family="GillSans" font-size="28.0" fill="#424242" transform="matrix(1.00, 0.00, -0.00, -1.00, 354.9, 287.0)">s</text><text xml:space="preserve" font-family="GillSans" font-size="28.0" fill="#424242" transform="matrix(1.00, 0.00, -0.00, -1.00, 365.7, 287.0)"> </text><text xml:space="preserve" font-family="GillSans" font-size="28.0" fill="#424242" transform="matrix(1.00, 0.00, -0.00, -1.00, 373.4, 287.0)">t</text><text xml:space="preserve" font-family="GillSans" font-size="28.0" fill="#424242" transform="matrix(1.00, 0.00, -0.00, -1.00, 382.8, 287.0)">h</text><text xml:space="preserve" font-family="GillSans" font-size="28.0" fill="#424242" transform="matrix(1.00, 0.00, -0.00, -1.00, 396.8, 287.0)">e</text><text xml:space="preserve" font-family="GillSans" font-size="28.0" fill="#424242" transform="matrix(1.00, 0.00, -0.00, -1.00, 410.2, 287.0)"> </text><text xml:space="preserve" font-family="GillSans" font-size="28.0" fill="#424242" transform="matrix(1.00, 0.00, -0.00, -1.00, 80.0, 255.0)">g</text><text xml:space="preserve" font-family="GillSans" font-size="28.0" fill="#424242" transform="matrix(1.00, 0.00, -0.00, -1.00, 91.9, 255.0)">r</text><text xml:space="preserve" font-family="GillSans" font-size="28.0" fill="#424242" transform="matrix(1.00, 0.00, -0.00, -1.00, 102.5, 255.0)">e</text><text xml:space="preserve" font-family="GillSans" font-size="28.0" fill="#424242" transform="matrix(1.00, 0.00, -0.00, -1.00, 115.9, 255.0)">a</text><text xml:space="preserve" font-family="GillSans" font-size="28.0" fill="#424242" transform="matrix(1.00, 0.00, -0.00, -1.00, 127.8, 255.0)">t</text><text xml:space="preserve" font-family="GillSans" font-size="28.0" fill="#424242" transform="matrix(1.00, 0.00, -0.00, -1.00, 137.2, 255.0)">e</text><text xml:space="preserve" font-family="GillSans" font-size="28.0" fill="#424242" transform="matrix(1.00, 0.00, -0.00, -1.00, 150.6, 255.0)">s</text><text xml:space="preserve" font-family="GillSans" font-size="28.0" fill="#424242" transform="matrix(1.00, 0.00, -0.00, -1.00, 161.3, 255.0)">t</text><text xml:space="preserve" font-family="GillSans" font-size="28.0" fill="#424242" transform="matrix(1.00, 0.00, -0.00, -1.00, 170.7, 255.0)"> </text><text xml:space="preserve" font-family="GillSans" font-size="28.0" fill="#424242" transform="matrix(1.00, 0.00, -0.00, -1.00, 178.4, 255.0)">p</text><text xml:space="preserve" font-family="GillSans" font-size="28.0" fill="#424242" transform="matrix(1.00, 0.00, -0.00, -1.00, 192.4, 255.0)">r</text><text xml:space="preserve" font-family="GillSans" font-size="28.0" fill="#424242" transform="matrix(1.00, 0.00, -0.00, -1.00, 203.0, 255.0)">e</text><text xml:space="preserve" font-family="GillSans" font-size="28.0" fill="#424242" transform="matrix(1.00, 0.00, -0.00, -1.00, 216.4, 255.0)">d</text><text xml:space="preserve" font-family="GillSans" font-size="28.0" fill="#424242" transform="matrix(1.00, 0.00, -0.00, -1.00, 230.6, 255.0)">i</text><text xml:space="preserve" font-family="GillSans" font-size="28.0" fill="#424242" transform="matrix(1.00, 0.00, -0.00, -1.00, 236.8, 255.0)">c</text><text xml:space="preserve" font-family="GillSans" font-size="28.0" fill="#424242" transform="matrix(1.00, 0.00, -0.00, -1.00, 249.0, 255.0)">t</text><text xml:space="preserve" font-family="GillSans" font-size="28.0" fill="#424242" transform="matrix(1.00, 0.00, -0.00, -1.00, 258.4, 255.0)">i</text><text xml:space="preserve" font-family="GillSans" font-size="28.0" fill="#424242" transform="matrix(1.00, 0.00, -0.00, -1.00, 264.5, 255.0)">v</text><text xml:space="preserve" font-family="GillSans" font-size="28.0" fill="#424242" transform="matrix(1.00, 0.00, -0.00, -1.00, 276.2, 255.0)">e</text><text xml:space="preserve" font-family="GillSans" font-size="28.0" fill="#424242" transform="matrix(1.00, 0.00, -0.00, -1.00, 289.6, 255.0)"> </text><text xml:space="preserve" font-family="GillSans" font-size="28.0" fill="#424242" transform="matrix(1.00, 0.00, -0.00, -1.00, 297.4, 255.0)">p</text><text xml:space="preserve" font-family="GillSans" font-size="28.0" fill="#424242" transform="matrix(1.00, 0.00, -0.00, -1.00, 311.4, 255.0)">o</text><text xml:space="preserve" font-family="GillSans" font-size="28.0" fill="#424242" transform="matrix(1.00, 0.00, -0.00, -1.00, 326.6, 255.0)">w</text><text xml:space="preserve" font-family="GillSans" font-size="28.0" fill="#424242" transform="matrix(1.00, 0.00, -0.00, -1.00, 346.2, 255.0)">e</text><text xml:space="preserve" font-family="GillSans" font-size="28.0" fill="#424242" transform="matrix(1.00, 0.00, -0.00, -1.00, 359.6, 255.0)">r</text><text xml:space="preserve" font-family="GillSans" font-size="28.0" fill="#424242" transform="matrix(1.00, 0.00, -0.00, -1.00, 367.9, 255.0)">,</text><text xml:space="preserve" font-family="GillSans" font-size="28.0" fill="#424242" transform="matrix(1.00, 0.00, -0.00, -1.00, 371.2, 255.0)"> </text><text xml:space="preserve" font-family="GillSans" font-size="28.0" fill="#424242" transform="matrix(1.00, 0.00, -0.00, -1.00, 379.0, 255.0)">b</text><text xml:space="preserve" font-family="GillSans" font-size="28.0" fill="#424242" transform="matrix(1.00, 0.00, -0.00, -1.00, 393.0, 255.0)">u</text><text xml:space="preserve" font-family="GillSans" font-size="28.0" fill="#424242" transform="matrix(1.00, 0.00, -0.00, -1.00, 407.0, 255.0)">t</text><text xml:space="preserve" font-family="GillSans" font-size="28.0" fill="#424242" transform="matrix(1.00, 0.00, -0.00, -1.00, 416.3, 255.0)"> </text><text xml:space="preserve" font-family="GillSans" font-size="28.0" fill="#424242" transform="matrix(1.00, 0.00, -0.00, -1.00, 80.0, 223.0)">c</text><text xml:space="preserve" font-family="GillSans" font-size="28.0" fill="#424242" transform="matrix(1.00, 0.00, -0.00, -1.00, 92.3, 223.0)">a</text><text xml:space="preserve" font-family="GillSans" font-size="28.0" fill="#424242" transform="matrix(1.00, 0.00, -0.00, -1.00, 104.2, 223.0)">n</text><text xml:space="preserve" font-family="GillSans" font-size="28.0" fill="#424242" transform="matrix(1.00, 0.00, -0.00, -1.00, 118.2, 223.0)"> </text><text xml:space="preserve" font-family="GillSans" font-size="28.0" fill="#424242" transform="matrix(1.00, 0.00, -0.00, -1.00, 126.0, 223.0)">b</text><text xml:space="preserve" font-family="GillSans" font-size="28.0" fill="#424242" transform="matrix(1.00, 0.00, -0.00, -1.00, 140.0, 223.0)">e</text><text xml:space="preserve" font-family="GillSans" font-size="28.0" fill="#424242" transform="matrix(1.00, 0.00, -0.00, -1.00, 153.4, 223.0)"> </text><text xml:space="preserve" font-family="GillSans" font-size="28.0" fill="#424242" transform="matrix(1.00, 0.00, -0.00, -1.00, 161.2, 223.0)">d</text><text xml:space="preserve" font-family="GillSans" font-size="28.0" fill="#424242" transform="matrix(1.00, 0.00, -0.00, -1.00, 175.4, 223.0)">i</text><text xml:space="preserve" font-family="GillSans" font-size="28.0" fill="#424242" transform="matrix(1.00, 0.00, -0.00, -1.00, 181.6, 223.0)">f</text><text xml:space="preserve" font-family="GillSans" font-size="28.0" fill="#424242" transform="matrix(1.00, 0.00, -0.00, -1.00, 188.6, 223.0)">ﬁ</text><text xml:space="preserve" font-family="GillSans" font-size="28.0" fill="#424242" transform="matrix(1.00, 0.00, -0.00, -1.00, 202.6, 223.0)">c</text><text xml:space="preserve" font-family="GillSans" font-size="28.0" fill="#424242" transform="matrix(1.00, 0.00, -0.00, -1.00, 214.8, 223.0)">u</text><text xml:space="preserve" font-family="GillSans" font-size="28.0" fill="#424242" transform="matrix(1.00, 0.00, -0.00, -1.00, 228.8, 223.0)">l</text><text xml:space="preserve" font-family="GillSans" font-size="28.0" fill="#424242" transform="matrix(1.00, 0.00, -0.00, -1.00, 235.0, 223.0)">t</text><text xml:space="preserve" font-family="GillSans" font-size="28.0" fill="#424242" transform="matrix(1.00, 0.00, -0.00, -1.00, 244.3, 223.0)"> </text><text xml:space="preserve" font-family="GillSans" font-size="28.0" fill="#424242" transform="matrix(1.00, 0.00, -0.00, -1.00, 252.1, 223.0)">t</text><text xml:space="preserve" font-family="GillSans" font-size="28.0" fill="#424242" transform="matrix(1.00, 0.00, -0.00, -1.00, 261.4, 223.0)">o</text><text xml:space="preserve" font-family="GillSans" font-size="28.0" fill="#424242" transform="matrix(1.00, 0.00, -0.00, -1.00, 276.9, 223.0)"> </text><text xml:space="preserve" font-family="GillSans" font-size="28.0" fill="#424242" transform="matrix(1.00, 0.00, -0.00, -1.00, 284.6, 223.0)">d</text><text xml:space="preserve" font-family="GillSans" font-size="28.0" fill="#424242" transform="matrix(1.00, 0.00, -0.00, -1.00, 298.9, 223.0)">i</text><text xml:space="preserve" font-family="GillSans" font-size="28.0" fill="#424242" transform="matrix(1.00, 0.00, -0.00, -1.00, 305.0, 223.0)">r</text><text xml:space="preserve" font-family="GillSans" font-size="28.0" fill="#424242" transform="matrix(1.00, 0.00, -0.00, -1.00, 315.6, 223.0)">e</text><text xml:space="preserve" font-family="GillSans" font-size="28.0" fill="#424242" transform="matrix(1.00, 0.00, -0.00, -1.00, 329.0, 223.0)">c</text><text xml:space="preserve" font-family="GillSans" font-size="28.0" fill="#424242" transform="matrix(1.00, 0.00, -0.00, -1.00, 341.2, 223.0)">t</text><text xml:space="preserve" font-family="GillSans" font-size="28.0" fill="#424242" transform="matrix(1.00, 0.00, -0.00, -1.00, 350.6, 223.0)">l</text><text xml:space="preserve" font-family="GillSans" font-size="28.0" fill="#424242" transform="matrix(1.00, 0.00, -0.00, -1.00, 356.4, 223.0)">y</text><text xml:space="preserve" font-family="GillSans" font-size="28.0" fill="#424242" transform="matrix(1.00, 0.00, -0.00, -1.00, 368.7, 223.0)"> </text><text xml:space="preserve" font-family="GillSans" font-size="28.0" fill="#424242" transform="matrix(1.00, 0.00, -0.00, -1.00, 376.5, 223.0)">l</text><text xml:space="preserve" font-family="GillSans" font-size="28.0" fill="#424242" transform="matrix(1.00, 0.00, -0.00, -1.00, 382.6, 223.0)">i</text><text xml:space="preserve" font-family="GillSans" font-size="28.0" fill="#424242" transform="matrix(1.00, 0.00, -0.00, -1.00, 388.8, 223.0)">n</text><text xml:space="preserve" font-family="GillSans" font-size="28.0" fill="#424242" transform="matrix(1.00, 0.00, -0.00, -1.00, 402.8, 223.0)">k</text><text xml:space="preserve" font-family="GillSans" font-size="28.0" fill="#424242" transform="matrix(1.00, 0.00, -0.00, -1.00, 416.2, 223.0)"> </text><text xml:space="preserve" font-family="GillSans" font-size="28.0" fill="#424242" transform="matrix(1.00, 0.00, -0.00, -1.00, 80.0, 191.0)">t</text><text xml:space="preserve" font-family="GillSans" font-size="28.0" fill="#424242" transform="matrix(1.00, 0.00, -0.00, -1.00, 89.3, 191.0)">o</text><text xml:space="preserve" font-family="GillSans" font-size="28.0" fill="#424242" transform="matrix(1.00, 0.00, -0.00, -1.00, 104.8, 191.0)"> </text><text xml:space="preserve" font-family="GillSans" font-size="28.0" fill="#424242" transform="matrix(1.00, 0.00, -0.00, -1.00, 112.5, 191.0)">g</text><text xml:space="preserve" font-family="GillSans" font-size="28.0" fill="#424242" transform="matrix(1.00, 0.00, -0.00, -1.00, 124.5, 191.0)">e</text><text xml:space="preserve" font-family="GillSans" font-size="28.0" fill="#424242" transform="matrix(1.00, 0.00, -0.00, -1.00, 137.9, 191.0)">o</text><text xml:space="preserve" font-family="GillSans" font-size="28.0" fill="#424242" transform="matrix(1.00, 0.00, -0.00, -1.00, 153.3, 191.0)">l</text><text xml:space="preserve" font-family="GillSans" font-size="28.0" fill="#424242" transform="matrix(1.00, 0.00, -0.00, -1.00, 159.5, 191.0)">o</text><text xml:space="preserve" font-family="GillSans" font-size="28.0" fill="#424242" transform="matrix(1.00, 0.00, -0.00, -1.00, 174.9, 191.0)">g</text><text xml:space="preserve" font-family="GillSans" font-size="28.0" fill="#424242" transform="matrix(1.00, 0.00, -0.00, -1.00, 186.9, 191.0)">i</text><text xml:space="preserve" font-family="GillSans" font-size="28.0" fill="#424242" transform="matrix(1.00, 0.00, -0.00, -1.00, 193.0, 191.0)">c</text><text xml:space="preserve" font-family="GillSans" font-size="28.0" fill="#424242" transform="matrix(1.00, 0.00, -0.00, -1.00, 205.3, 191.0)">a</text><text xml:space="preserve" font-family="GillSans" font-size="28.0" fill="#424242" transform="matrix(1.00, 0.00, -0.00, -1.00, 217.2, 191.0)">l</text><text xml:space="preserve" font-family="GillSans" font-size="28.0" fill="#424242" transform="matrix(1.00, 0.00, -0.00, -1.00, 223.4, 191.0)"> </text><text xml:space="preserve" font-family="GillSans" font-size="28.0" fill="#424242" transform="matrix(1.00, 0.00, -0.00, -1.00, 231.1, 191.0)">o</text><text xml:space="preserve" font-family="GillSans" font-size="28.0" fill="#424242" transform="matrix(1.00, 0.00, -0.00, -1.00, 246.6, 191.0)">b</text><text xml:space="preserve" font-family="GillSans" font-size="28.0" fill="#424242" transform="matrix(1.00, 0.00, -0.00, -1.00, 260.6, 191.0)">s</text><text xml:space="preserve" font-family="GillSans" font-size="28.0" fill="#424242" transform="matrix(1.00, 0.00, -0.00, -1.00, 271.4, 191.0)">e</text><text xml:space="preserve" font-family="GillSans" font-size="28.0" fill="#424242" transform="matrix(1.00, 0.00, -0.00, -1.00, 284.8, 191.0)">r</text><text xml:space="preserve" font-family="GillSans" font-size="28.0" fill="#424242" transform="matrix(1.00, 0.00, -0.00, -1.00, 296.7, 191.0)">v</text><text xml:space="preserve" font-family="GillSans" font-size="28.0" fill="#424242" transform="matrix(1.00, 0.00, -0.00, -1.00, 309.0, 191.0)">a</text><text xml:space="preserve" font-family="GillSans" font-size="28.0" fill="#424242" transform="matrix(1.00, 0.00, -0.00, -1.00, 320.9, 191.0)">t</text><text xml:space="preserve" font-family="GillSans" font-size="28.0" fill="#424242" transform="matrix(1.00, 0.00, -0.00, -1.00, 330.2, 191.0)">i</text><text xml:space="preserve" font-family="GillSans" font-size="28.0" fill="#424242" transform="matrix(1.00, 0.00, -0.00, -1.00, 336.4, 191.0)">o</text><text xml:space="preserve" font-family="GillSans" font-size="28.0" fill="#424242" transform="matrix(1.00, 0.00, -0.00, -1.00, 351.8, 191.0)">n</text><text xml:space="preserve" font-family="GillSans" font-size="28.0" fill="#424242" transform="matrix(1.00, 0.00, -0.00, -1.00, 365.8, 191.0)">s</text><text xml:space="preserve" font-family="GillSans" font-size="28.0" fill="#424242" transform="matrix(1.00, 0.00, -0.00, -1.00, 376.6, 191.0)"> </text><text xml:space="preserve" font-family="GillSans" font-size="28.0" fill="#424242" transform="matrix(1.00, 0.00, -0.00, -1.00, 80.0, 159.0)">b</text><text xml:space="preserve" font-family="GillSans" font-size="28.0" fill="#424242" transform="matrix(1.00, 0.00, -0.00, -1.00, 94.0, 159.0)">e</text><text xml:space="preserve" font-family="GillSans" font-size="28.0" fill="#424242" transform="matrix(1.00, 0.00, -0.00, -1.00, 107.4, 159.0)">c</text><text xml:space="preserve" font-family="GillSans" font-size="28.0" fill="#424242" transform="matrix(1.00, 0.00, -0.00, -1.00, 119.7, 159.0)">a</text><text xml:space="preserve" font-family="GillSans" font-size="28.0" fill="#424242" transform="matrix(1.00, 0.00, -0.00, -1.00, 131.6, 159.0)">u</text><text xml:space="preserve" font-family="GillSans" font-size="28.0" fill="#424242" transform="matrix(1.00, 0.00, -0.00, -1.00, 145.6, 159.0)">s</text><text xml:space="preserve" font-family="GillSans" font-size="28.0" fill="#424242" transform="matrix(1.00, 0.00, -0.00, -1.00, 156.4, 159.0)">e</text><text xml:space="preserve" font-family="GillSans" font-size="28.0" fill="#424242" transform="matrix(1.00, 0.00, -0.00, -1.00, 169.8, 159.0)"> </text><text xml:space="preserve" font-family="GillSans" font-size="28.0" fill="#424242" transform="matrix(1.00, 0.00, -0.00, -1.00, 177.6, 159.0)">t</text><text xml:space="preserve" font-family="GillSans" font-size="28.0" fill="#424242" transform="matrix(1.00, 0.00, -0.00, -1.00, 186.9, 159.0)">h</text><text xml:space="preserve" font-family="GillSans" font-size="28.0" fill="#424242" transform="matrix(1.00, 0.00, -0.00, -1.00, 200.9, 159.0)">e</text><text xml:space="preserve" font-family="GillSans" font-size="28.0" fill="#424242" transform="matrix(1.00, 0.00, -0.00, -1.00, 214.3, 159.0)"> </text><text xml:space="preserve" font-family="GillSans" font-size="28.0" fill="#424242" transform="matrix(1.00, 0.00, -0.00, -1.00, 222.1, 159.0)">m</text><text xml:space="preserve" font-family="GillSans" font-size="28.0" fill="#424242" transform="matrix(1.00, 0.00, -0.00, -1.00, 243.7, 159.0)">o</text><text xml:space="preserve" font-family="GillSans" font-size="28.0" fill="#424242" transform="matrix(1.00, 0.00, -0.00, -1.00, 259.1, 159.0)">d</text><text xml:space="preserve" font-family="GillSans" font-size="28.0" fill="#424242" transform="matrix(1.00, 0.00, -0.00, -1.00, 273.4, 159.0)">e</text><text xml:space="preserve" font-family="GillSans" font-size="28.0" fill="#424242" transform="matrix(1.00, 0.00, -0.00, -1.00, 286.8, 159.0)">l</text><text xml:space="preserve" font-family="GillSans" font-size="28.0" fill="#424242" transform="matrix(1.00, 0.00, -0.00, -1.00, 292.9, 159.0)"> </text><text xml:space="preserve" font-family="GillSans" font-size="28.0" fill="#424242" transform="matrix(1.00, 0.00, -0.00, -1.00, 300.7, 159.0)">e</text><text xml:space="preserve" font-family="GillSans" font-size="28.0" fill="#424242" transform="matrix(1.00, 0.00, -0.00, -1.00, 313.7, 159.0)">v</text><text xml:space="preserve" font-family="GillSans" font-size="28.0" fill="#424242" transform="matrix(1.00, 0.00, -0.00, -1.00, 325.4, 159.0)">o</text><text xml:space="preserve" font-family="GillSans" font-size="28.0" fill="#424242" transform="matrix(1.00, 0.00, -0.00, -1.00, 340.8, 159.0)">l</text><text xml:space="preserve" font-family="GillSans" font-size="28.0" fill="#424242" transform="matrix(1.00, 0.00, -0.00, -1.00, 347.0, 159.0)">u</text><text xml:space="preserve" font-family="GillSans" font-size="28.0" fill="#424242" transform="matrix(1.00, 0.00, -0.00, -1.00, 361.0, 159.0)">t</text><text xml:space="preserve" font-family="GillSans" font-size="28.0" fill="#424242" transform="matrix(1.00, 0.00, -0.00, -1.00, 370.3, 159.0)">i</text><text xml:space="preserve" font-family="GillSans" font-size="28.0" fill="#424242" transform="matrix(1.00, 0.00, -0.00, -1.00, 376.5, 159.0)">o</text><text xml:space="preserve" font-family="GillSans" font-size="28.0" fill="#424242" transform="matrix(1.00, 0.00, -0.00, -1.00, 391.9, 159.0)">n</text><text xml:space="preserve" font-family="GillSans" font-size="28.0" fill="#424242" transform="matrix(1.00, 0.00, -0.00, -1.00, 405.9, 159.0)"> </text><text xml:space="preserve" font-family="GillSans" font-size="28.0" fill="#424242" transform="matrix(1.00, 0.00, -0.00, -1.00, 413.7, 159.0)">i</text><text xml:space="preserve" font-family="GillSans" font-size="28.0" fill="#424242" transform="matrix(1.00, 0.00, -0.00, -1.00, 419.8, 159.0)">s</text><text xml:space="preserve" font-family="GillSans" font-size="28.0" fill="#424242" transform="matrix(1.00, 0.00, -0.00, -1.00, 430.6, 159.0)"> </text><text xml:space="preserve" font-family="GillSans" font-size="28.0" fill="#424242" transform="matrix(1.00, 0.00, -0.00, -1.00, 80.0, 127.0)">n</text><text xml:space="preserve" font-family="GillSans" font-size="28.0" fill="#424242" transform="matrix(1.00, 0.00, -0.00, -1.00, 94.0, 127.0)">o</text><text xml:space="preserve" font-family="GillSans" font-size="28.0" fill="#424242" transform="matrix(1.00, 0.00, -0.00, -1.00, 109.4, 127.0)">t</text><text xml:space="preserve" font-family="GillSans" font-size="28.0" fill="#424242" transform="matrix(1.00, 0.00, -0.00, -1.00, 118.8, 127.0)"> </text><text xml:space="preserve" font-family="GillSans" font-size="28.0" fill="#424242" transform="matrix(1.00, 0.00, -0.00, -1.00, 126.5, 127.0)">k</text><text xml:space="preserve" font-family="GillSans" font-size="28.0" fill="#424242" transform="matrix(1.00, 0.00, -0.00, -1.00, 140.0, 127.0)">n</text><text xml:space="preserve" font-family="GillSans" font-size="28.0" fill="#424242" transform="matrix(1.00, 0.00, -0.00, -1.00, 154.0, 127.0)">o</text><text xml:space="preserve" font-family="GillSans" font-size="28.0" fill="#424242" transform="matrix(1.00, 0.00, -0.00, -1.00, 169.1, 127.0)">w</text><text xml:space="preserve" font-family="GillSans" font-size="28.0" fill="#424242" transform="matrix(1.00, 0.00, -0.00, -1.00, 189.3, 127.0)">n</text><text xml:space="preserve" font-family="GillSans" font-size="28.0" fill="#424242" transform="matrix(1.00, 0.00, -0.00, -1.00, 203.3, 127.0)"> </text><text xml:space="preserve" font-family="GillSans-Italic" font-style="italic" font-size="28.0" fill="#424242" transform="matrix(1.00, 0.00, -0.00, -1.00, 211.1, 127.0)">a</text><text xml:space="preserve" font-family="GillSans-Italic" font-style="italic" font-size="28.0" fill="#424242" transform="matrix(1.00, 0.00, -0.00, -1.00, 224.2, 127.0)"> </text><text xml:space="preserve" font-family="GillSans-Italic" font-style="italic" font-size="28.0" fill="#424242" transform="matrix(1.00, 0.00, -0.00, -1.00, 232.0, 127.0)">p</text><text xml:space="preserve" font-family="GillSans-Italic" font-style="italic" font-size="28.0" fill="#424242" transform="matrix(1.00, 0.00, -0.00, -1.00, 245.7, 127.0)">r</text><text xml:space="preserve" font-family="GillSans-Italic" font-style="italic" font-size="28.0" fill="#424242" transform="matrix(1.00, 0.00, -0.00, -1.00, 255.0, 127.0)">i</text><text xml:space="preserve" font-family="GillSans-Italic" font-style="italic" font-size="28.0" fill="#424242" transform="matrix(1.00, 0.00, -0.00, -1.00, 260.3, 127.0)">o</text><text xml:space="preserve" font-family="GillSans-Italic" font-style="italic" font-size="28.0" fill="#424242" transform="matrix(1.00, 0.00, -0.00, -1.00, 272.9, 127.0)">r</text><text xml:space="preserve" font-family="GillSans-Italic" font-style="italic" font-size="28.0" fill="#424242" transform="matrix(1.00, 0.00, -0.00, -1.00, 282.2, 127.0)">i</text><text xml:space="preserve" font-family="GillSans" font-size="47.9" fill="#424242" transform="matrix(1.00, 0.00, -0.00, -1.00, 35.4, 64.5)">•</text><text xml:space="preserve" font-family="GillSans" font-size="28.0" fill="#424242" transform="matrix(1.00, 0.00, -0.00, -1.00, 80.0, 71.0)">T</text><text xml:space="preserve" font-family="GillSans" font-size="28.0" fill="#424242" transform="matrix(1.00, 0.00, -0.00, -1.00, 96.9, 71.0)">h</text><text xml:space="preserve" font-family="GillSans" font-size="28.0" fill="#424242" transform="matrix(1.00, 0.00, -0.00, -1.00, 110.9, 71.0)">i</text><text xml:space="preserve" font-family="GillSans" font-size="28.0" fill="#424242" transform="matrix(1.00, 0.00, -0.00, -1.00, 117.1, 71.0)">s</text><text xml:space="preserve" font-family="GillSans" font-size="28.0" fill="#424242" transform="matrix(1.00, 0.00, -0.00, -1.00, 127.8, 71.0)"> </text><text xml:space="preserve" font-family="GillSans" font-size="28.0" fill="#424242" transform="matrix(1.00, 0.00, -0.00, -1.00, 135.6, 71.0)">k</text><text xml:space="preserve" font-family="GillSans" font-size="28.0" fill="#424242" transform="matrix(1.00, 0.00, -0.00, -1.00, 149.0, 71.0)">i</text><text xml:space="preserve" font-family="GillSans" font-size="28.0" fill="#424242" transform="matrix(1.00, 0.00, -0.00, -1.00, 155.2, 71.0)">n</text><text xml:space="preserve" font-family="GillSans" font-size="28.0" fill="#424242" transform="matrix(1.00, 0.00, -0.00, -1.00, 169.2, 71.0)">d</text><text xml:space="preserve" font-family="GillSans" font-size="28.0" fill="#424242" transform="matrix(1.00, 0.00, -0.00, -1.00, 183.4, 71.0)"> </text><text xml:space="preserve" font-family="GillSans" font-size="28.0" fill="#424242" transform="matrix(1.00, 0.00, -0.00, -1.00, 191.2, 71.0)">o</text><text xml:space="preserve" font-family="GillSans" font-size="28.0" fill="#424242" transform="matrix(1.00, 0.00, -0.00, -1.00, 206.6, 71.0)">f</text><text xml:space="preserve" font-family="GillSans" font-size="28.0" fill="#424242" transform="matrix(1.00, 0.00, -0.00, -1.00, 213.6, 71.0)"> </text><text xml:space="preserve" font-family="GillSans" font-size="28.0" fill="#424242" transform="matrix(1.00, 0.00, -0.00, -1.00, 221.4, 71.0)">m</text><text xml:space="preserve" font-family="GillSans" font-size="28.0" fill="#424242" transform="matrix(1.00, 0.00, -0.00, -1.00, 243.0, 71.0)">o</text><text xml:space="preserve" font-family="GillSans" font-size="28.0" fill="#424242" transform="matrix(1.00, 0.00, -0.00, -1.00, 258.4, 71.0)">d</text><text xml:space="preserve" font-family="GillSans" font-size="28.0" fill="#424242" transform="matrix(1.00, 0.00, -0.00, -1.00, 272.7, 71.0)">e</text><text xml:space="preserve" font-family="GillSans" font-size="28.0" fill="#424242" transform="matrix(1.00, 0.00, -0.00, -1.00, 286.1, 71.0)">l</text><text xml:space="preserve" font-family="GillSans" font-size="28.0" fill="#424242" transform="matrix(1.00, 0.00, -0.00, -1.00, 292.3, 71.0)"> </text><text xml:space="preserve" font-family="GillSans" font-size="28.0" fill="#424242" transform="matrix(1.00, 0.00, -0.00, -1.00, 300.0, 71.0)">i</text><text xml:space="preserve" font-family="GillSans" font-size="28.0" fill="#424242" transform="matrix(1.00, 0.00, -0.00, -1.00, 306.2, 71.0)">s</text><text xml:space="preserve" font-family="GillSans" font-size="28.0" fill="#424242" transform="matrix(1.00, 0.00, -0.00, -1.00, 317.0, 71.0)"> </text><text xml:space="preserve" font-family="GillSans" font-size="28.0" fill="#424242" transform="matrix(1.00, 0.00, -0.00, -1.00, 324.7, 71.0)">t</text><text xml:space="preserve" font-family="GillSans" font-size="28.0" fill="#424242" transform="matrix(1.00, 0.00, -0.00, -1.00, 334.1, 71.0)">h</text><text xml:space="preserve" font-family="GillSans" font-size="28.0" fill="#424242" transform="matrix(1.00, 0.00, -0.00, -1.00, 348.1, 71.0)">e</text><text xml:space="preserve" font-family="GillSans" font-size="28.0" fill="#424242" transform="matrix(1.00, 0.00, -0.00, -1.00, 361.5, 71.0)"> </text><text xml:space="preserve" font-family="GillSans" font-size="28.0" fill="#424242" transform="matrix(1.00, 0.00, -0.00, -1.00, 369.2, 71.0)">f</text><text xml:space="preserve" font-family="GillSans" font-size="28.0" fill="#424242" transform="matrix(1.00, 0.00, -0.00, -1.00, 376.0, 71.0)">o</text><text xml:space="preserve" font-family="GillSans" font-size="28.0" fill="#424242" transform="matrix(1.00, 0.00, -0.00, -1.00, 391.4, 71.0)">c</text><text xml:space="preserve" font-family="GillSans" font-size="28.0" fill="#424242" transform="matrix(1.00, 0.00, -0.00, -1.00, 403.7, 71.0)">u</text><text xml:space="preserve" font-family="GillSans" font-size="28.0" fill="#424242" transform="matrix(1.00, 0.00, -0.00, -1.00, 417.7, 71.0)">s</text><text xml:space="preserve" font-family="GillSans" font-size="28.0" fill="#424242" transform="matrix(1.00, 0.00, -0.00, -1.00, 428.4, 71.0)"> </text><text xml:space="preserve" font-family="GillSans" font-size="28.0" fill="#424242" transform="matrix(1.00, 0.00, -0.00, -1.00, 80.0, 39.0)">f</text><text xml:space="preserve" font-family="GillSans" font-size="28.0" fill="#424242" transform="matrix(1.00, 0.00, -0.00, -1.00, 86.7, 39.0)">o</text><text xml:space="preserve" font-family="GillSans" font-size="28.0" fill="#424242" transform="matrix(1.00, 0.00, -0.00, -1.00, 102.2, 39.0)">r</text><text xml:space="preserve" font-family="GillSans" font-size="28.0" fill="#424242" transform="matrix(1.00, 0.00, -0.00, -1.00, 113.3, 39.0)"> </text><text xml:space="preserve" font-family="GillSans" font-size="28.0" fill="#424242" transform="matrix(1.00, 0.00, -0.00, -1.00, 121.0, 39.0)">t</text><text xml:space="preserve" font-family="GillSans" font-size="28.0" fill="#424242" transform="matrix(1.00, 0.00, -0.00, -1.00, 130.4, 39.0)">h</text><text xml:space="preserve" font-family="GillSans" font-size="28.0" fill="#424242" transform="matrix(1.00, 0.00, -0.00, -1.00, 144.4, 39.0)">e</text><text xml:space="preserve" font-family="GillSans" font-size="28.0" fill="#424242" transform="matrix(1.00, 0.00, -0.00, -1.00, 157.8, 39.0)"> </text><text xml:space="preserve" font-family="GillSans" font-size="28.0" fill="#424242" transform="matrix(1.00, 0.00, -0.00, -1.00, 165.5, 39.0)">r</text><text xml:space="preserve" font-family="GillSans" font-size="28.0" fill="#424242" transform="matrix(1.00, 0.00, -0.00, -1.00, 176.1, 39.0)">e</text><text xml:space="preserve" font-family="GillSans" font-size="28.0" fill="#424242" transform="matrix(1.00, 0.00, -0.00, -1.00, 189.5, 39.0)">m</text><text xml:space="preserve" font-family="GillSans" font-size="28.0" fill="#424242" transform="matrix(1.00, 0.00, -0.00, -1.00, 211.1, 39.0)">a</text><text xml:space="preserve" font-family="GillSans" font-size="28.0" fill="#424242" transform="matrix(1.00, 0.00, -0.00, -1.00, 223.0, 39.0)">i</text><text xml:space="preserve" font-family="GillSans" font-size="28.0" fill="#424242" transform="matrix(1.00, 0.00, -0.00, -1.00, 229.2, 39.0)">n</text><text xml:space="preserve" font-family="GillSans" font-size="28.0" fill="#424242" transform="matrix(1.00, 0.00, -0.00, -1.00, 243.2, 39.0)">d</text><text xml:space="preserve" font-family="GillSans" font-size="28.0" fill="#424242" transform="matrix(1.00, 0.00, -0.00, -1.00, 257.4, 39.0)">e</text><text xml:space="preserve" font-family="GillSans" font-size="28.0" fill="#424242" transform="matrix(1.00, 0.00, -0.00, -1.00, 270.8, 39.0)">r</text><text xml:space="preserve" font-family="GillSans" font-size="28.0" fill="#424242" transform="matrix(1.00, 0.00, -0.00, -1.00, 281.9, 39.0)"> </text><text xml:space="preserve" font-family="GillSans" font-size="28.0" fill="#424242" transform="matrix(1.00, 0.00, -0.00, -1.00, 289.7, 39.0)">o</text><text xml:space="preserve" font-family="GillSans" font-size="28.0" fill="#424242" transform="matrix(1.00, 0.00, -0.00, -1.00, 305.1, 39.0)">f</text><text xml:space="preserve" font-family="GillSans" font-size="28.0" fill="#424242" transform="matrix(1.00, 0.00, -0.00, -1.00, 312.1, 39.0)"> </text><text xml:space="preserve" font-family="GillSans" font-size="28.0" fill="#424242" transform="matrix(1.00, 0.00, -0.00, -1.00, 319.9, 39.0)">t</text><text xml:space="preserve" font-family="GillSans" font-size="28.0" fill="#424242" transform="matrix(1.00, 0.00, -0.00, -1.00, 329.2, 39.0)">h</text><text xml:space="preserve" font-family="GillSans" font-size="28.0" fill="#424242" transform="matrix(1.00, 0.00, -0.00, -1.00, 343.2, 39.0)">i</text><text xml:space="preserve" font-family="GillSans" font-size="28.0" fill="#424242" transform="matrix(1.00, 0.00, -0.00, -1.00, 349.4, 39.0)">s</text><text xml:space="preserve" font-family="GillSans" font-size="28.0" fill="#424242" transform="matrix(1.00, 0.00, -0.00, -1.00, 360.2, 39.0)"> </text><text xml:space="preserve" font-family="GillSans" font-size="28.0" fill="#424242" transform="matrix(1.00, 0.00, -0.00, -1.00, 80.0, 7.0)">p</text><text xml:space="preserve" font-family="GillSans" font-size="28.0" fill="#424242" transform="matrix(1.00, 0.00, -0.00, -1.00, 94.0, 7.0)">r</text><text xml:space="preserve" font-family="GillSans" font-size="28.0" fill="#424242" transform="matrix(1.00, 0.00, -0.00, -1.00, 104.5, 7.0)">e</text><text xml:space="preserve" font-family="GillSans" font-size="28.0" fill="#424242" transform="matrix(1.00, 0.00, -0.00, -1.00, 117.9, 7.0)">s</text><text xml:space="preserve" font-family="GillSans" font-size="28.0" fill="#424242" transform="matrix(1.00, 0.00, -0.00, -1.00, 128.7, 7.0)">e</text><text xml:space="preserve" font-family="GillSans" font-size="28.0" fill="#424242" transform="matrix(1.00, 0.00, -0.00, -1.00, 142.1, 7.0)">n</text><text xml:space="preserve" font-family="GillSans" font-size="28.0" fill="#424242" transform="matrix(1.00, 0.00, -0.00, -1.00, 156.1, 7.0)">t</text><text xml:space="preserve" font-family="GillSans" font-size="28.0" fill="#424242" transform="matrix(1.00, 0.00, -0.00, -1.00, 165.4, 7.0)">a</text><text xml:space="preserve" font-family="GillSans" font-size="28.0" fill="#424242" transform="matrix(1.00, 0.00, -0.00, -1.00, 177.4, 7.0)">t</text><text xml:space="preserve" font-family="GillSans" font-size="28.0" fill="#424242" transform="matrix(1.00, 0.00, -0.00, -1.00, 186.7, 7.0)">i</text><text xml:space="preserve" font-family="GillSans" font-size="28.0" fill="#424242" transform="matrix(1.00, 0.00, -0.00, -1.00, 192.9, 7.0)">o</text><text xml:space="preserve" font-family="GillSans" font-size="28.0" fill="#424242" transform="matrix(1.00, 0.00, -0.00, -1.00, 208.3, 7.0)">n</text></g></svg>