<?xml version="1.0" encoding="UTF-8" standalone="no"?><svg xmlns="http://www.w3.org/2000/svg" xmlns:xlink="http://www.w3.org/1999/xlink" clip-rule="evenodd" stroke-miterlimit="4.00" viewBox="0 0 129 18"><desc>SVG generated by Keynote</desc><defs></defs><g transform="matrix(1.00, 0.00, -0.00, -1.00, 0.0, 18.0)"><text xml:space="preserve" font-family="GillSans" font-size="18.0" fill="#5E5E5E" transform="matrix(1.00, 0.00, -0.00, -1.00, 0.0, 3.7)">B</text><text xml:space="preserve" font-family="GillSans" font-size="18.0" fill="#5E5E5E" transform="matrix(1.00, 0.00, -0.00, -1.00, 10.2, 3.7)">u</text><text xml:space="preserve" font-family="GillSans" font-size="18.0" fill="#5E5E5E" transform="matrix(1.00, 0.00, -0.00, -1.00, 19.2, 3.7)">t</text><text xml:space="preserve" font-family="GillSans" font-size="18.0" fill="#5E5E5E" transform="matrix(1.00, 0.00, -0.00, -1.00, 25.2, 3.7)">l</text><text xml:space="preserve" font-family="GillSans" font-size="18.0" fill="#5E5E5E" transform="matrix(1.00, 0.00, -0.00, -1.00, 29.1, 3.7)">e</text><text xml:space="preserve" font-family="GillSans" font-size="18.0" fill="#5E5E5E" transform="matrix(1.00, 0.00, -0.00, -1.00, 37.7, 3.7)">r</text><text xml:space="preserve" font-family="GillSans" font-size="18.0" fill="#5E5E5E" transform="matrix(1.00, 0.00, -0.00, -1.00, 44.9, 3.7)"> </text><text xml:space="preserve" font-family="GillSans" font-size="18.0" fill="#5E5E5E" transform="matrix(1.00, 0.00, -0.00, -1.00, 49.9, 3.7)">e</text><text xml:space="preserve" font-family="GillSans" font-size="18.0" fill="#5E5E5E" transform="matrix(1.00, 0.00, -0.00, -1.00, 58.5, 3.7)">t</text><text xml:space="preserve" font-family="GillSans" font-size="18.0" fill="#5E5E5E" transform="matrix(1.00, 0.00, -0.00, -1.00, 64.5, 3.7)"> </text><text xml:space="preserve" font-family="GillSans" font-size="18.0" fill="#5E5E5E" transform="matrix(1.00, 0.00, -0.00, -1.00, 69.5, 3.7)">a</text><text xml:space="preserve" font-family="GillSans" font-size="18.0" fill="#5E5E5E" transform="matrix(1.00, 0.00, -0.00, -1.00, 77.2, 3.7)">l</text><text xml:space="preserve" font-family="GillSans" font-size="18.0" fill="#5E5E5E" transform="matrix(1.00, 0.00, -0.00, -1.00, 81.1, 3.7)">.</text><text xml:space="preserve" font-family="GillSans" font-size="18.0" fill="#5E5E5E" transform="matrix(1.00, 0.00, -0.00, -1.00, 85.1, 3.7)">,</text><text xml:space="preserve" font-family="GillSans" font-size="18.0" fill="#5E5E5E" transform="matrix(1.00, 0.00, -0.00, -1.00, 87.2, 3.7)"> </text><text xml:space="preserve" font-family="GillSans" font-size="18.0" fill="#5E5E5E" transform="matrix(1.00, 0.00, -0.00, -1.00, 92.2, 3.7)">2</text><text xml:space="preserve" font-family="GillSans" font-size="18.0" fill="#5E5E5E" transform="matrix(1.00, 0.00, -0.00, -1.00, 101.2, 3.7)">0</text><text xml:space="preserve" font-family="GillSans" font-size="18.0" fill="#5E5E5E" transform="matrix(1.00, 0.00, -0.00, -1.00, 110.2, 3.7)">1</text><text xml:space="preserve" font-family="GillSans" font-size="18.0" fill="#5E5E5E" transform="matrix(1.00, 0.00, -0.00, -1.00, 119.2, 3.7)">3</text></g></svg>