<?xml version="1.0" encoding="UTF-8" standalone="no"?><svg xmlns="http://www.w3.org/2000/svg" xmlns:xlink="http://www.w3.org/1999/xlink" clip-rule="evenodd" stroke-miterlimit="4.00" viewBox="0 0 391 36"><desc>SVG generated by Keynote</desc><defs></defs><g transform="matrix(1.00, 0.00, -0.00, -1.00, 0.0, 36.0)"><text xml:space="preserve" font-family="AvenirNext-Medium" font-size="42.0" fill="#000000" transform="matrix(1.00, 0.00, -0.00, -1.00, -1.0, 2.0)">C</text><text xml:space="preserve" font-family="AvenirNext-Medium" font-size="42.0" fill="#000000" transform="matrix(1.00, 0.00, -0.00, -1.00, 28.2, 2.0)">o</text><text xml:space="preserve" font-family="AvenirNext-Medium" font-size="42.0" fill="#000000" transform="matrix(1.00, 0.00, -0.00, -1.00, 53.9, 2.0)">n</text><text xml:space="preserve" font-family="AvenirNext-Medium" font-size="42.0" fill="#000000" transform="matrix(1.00, 0.00, -0.00, -1.00, 78.3, 2.0)">t</text><text xml:space="preserve" font-family="AvenirNext-Medium" font-size="42.0" fill="#000000" transform="matrix(1.00, 0.00, -0.00, -1.00, 92.1, 2.0)">i</text><text xml:space="preserve" font-family="AvenirNext-Medium" font-size="42.0" fill="#000000" transform="matrix(1.00, 0.00, -0.00, -1.00, 103.0, 2.0)">n</text><text xml:space="preserve" font-family="AvenirNext-Medium" font-size="42.0" fill="#000000" transform="matrix(1.00, 0.00, -0.00, -1.00, 127.4, 2.0)">e</text><text xml:space="preserve" font-family="AvenirNext-Medium" font-size="42.0" fill="#000000" transform="matrix(1.00, 0.00, -0.00, -1.00, 151.5, 2.0)">n</text><text xml:space="preserve" font-family="AvenirNext-Medium" font-size="42.0" fill="#000000" transform="matrix(1.00, 0.00, -0.00, -1.00, 175.9, 2.0)">t</text><text xml:space="preserve" font-family="AvenirNext-Medium" font-size="42.0" fill="#000000" transform="matrix(1.00, 0.00, -0.00, -1.00, 189.8, 2.0)">a</text><text xml:space="preserve" font-family="AvenirNext-Medium" font-size="42.0" fill="#000000" transform="matrix(1.00, 0.00, -0.00, -1.00, 212.5, 2.0)">l</text><text xml:space="preserve" font-family="AvenirNext-Medium" font-size="42.0" fill="#000000" transform="matrix(1.00, 0.00, -0.00, -1.00, 223.4, 2.0)"> </text><text xml:space="preserve" font-family="AvenirNext-Medium" font-size="42.0" fill="#000000" transform="matrix(1.00, 0.00, -0.00, -1.00, 233.9, 2.0)">c</text><text xml:space="preserve" font-family="AvenirNext-Medium" font-size="42.0" fill="#000000" transform="matrix(1.00, 0.00, -0.00, -1.00, 254.7, 2.0)">o</text><text xml:space="preserve" font-family="AvenirNext-Medium" font-size="42.0" fill="#000000" transform="matrix(1.00, 0.00, -0.00, -1.00, 280.3, 2.0)">l</text><text xml:space="preserve" font-family="AvenirNext-Medium" font-size="42.0" fill="#000000" transform="matrix(1.00, 0.00, -0.00, -1.00, 291.2, 2.0)">l</text><text xml:space="preserve" font-family="AvenirNext-Medium" font-size="42.0" fill="#000000" transform="matrix(1.00, 0.00, -0.00, -1.00, 302.2, 2.0)">i</text><text xml:space="preserve" font-family="AvenirNext-Medium" font-size="42.0" fill="#000000" transform="matrix(1.00, 0.00, -0.00, -1.00, 313.0, 2.0)">s</text><text xml:space="preserve" font-family="AvenirNext-Medium" font-size="42.0" fill="#000000" transform="matrix(1.00, 0.00, -0.00, -1.00, 331.7, 2.0)">i</text><text xml:space="preserve" font-family="AvenirNext-Medium" font-size="42.0" fill="#000000" transform="matrix(1.00, 0.00, -0.00, -1.00, 342.6, 2.0)">o</text><text xml:space="preserve" font-family="AvenirNext-Medium" font-size="42.0" fill="#000000" transform="matrix(1.00, 0.00, -0.00, -1.00, 368.2, 2.0)">n</text></g></svg>