<?xml version="1.0" encoding="UTF-8" standalone="no"?><svg xmlns="http://www.w3.org/2000/svg" xmlns:xlink="http://www.w3.org/1999/xlink" clip-rule="evenodd" stroke-miterlimit="4.00" viewBox="0 0 217 206"><desc>SVG generated by Keynote</desc><defs></defs><g transform="matrix(1.00, 0.00, -0.00, -1.00, 0.0, 206.0)"><g><clipPath id="clip-433"><path d="M 1.0 2.0 L 216.0 2.0 L 216.0 205.0 L 1.0 205.0 Z M 1.0 2.0 "></path></clipPath><g clip-path="url(#clip-433)"><path d="M 100.1 35.0 L 117.0 35.0 L 117.0 18.0 L 100.1 18.0 Z M 100.1 35.0 " fill="#FBA211"></path><path d="M 100.1 187.3 L 117.0 187.3 L 117.0 170.4 L 100.1 170.4 Z M 100.1 187.3 " fill="#FBA211"></path><path d="M 100.1 94.2 L 117.0 94.2 L 117.0 111.1 L 100.1 111.1 Z M 198.8 74.9 C 192.2 79.2 182.3 80.9 174.8 76.0 C 168.9 86.1 160.9 81.0 154.4 80.5 C 149.4 80.1 146.0 81.2 141.2 84.3 C 143.1 78.3 158.1 75.0 157.1 60.7 C 153.5 65.8 146.7 68.4 137.3 69.8 C 131.8 70.5 126.5 72.5 122.5 77.1 C 122.6 74.3 123.1 70.7 128.7 67.2 C 134.5 63.5 143.8 55.9 142.4 42.9 C 135.8 50.7 129.0 53.0 117.6 51.6 C 112.6 51.0 107.3 52.0 105.0 57.8 C 103.4 62.1 100.4 62.8 96.2 61.6 C 71.8 55.1 59.5 69.0 58.8 84.6 C 64.7 78.4 82.0 74.7 89.3 80.8 C 80.5 81.2 76.1 83.7 73.9 88.5 C 72.2 92.4 73.5 97.1 69.7 100.7 C 65.7 104.5 59.0 102.2 54.2 102.3 C 43.8 102.4 39.6 108.8 36.7 115.5 C 31.5 127.5 26.6 132.8 18.2 133.8 C 19.7 135.2 23.2 136.4 26.7 136.4 C 33.7 136.4 39.9 132.9 44.2 128.2 C 48.2 124.1 53.0 125.7 53.0 130.1 C 53.0 135.2 45.9 138.0 41.1 138.8 C 42.2 139.5 45.5 140.9 49.8 140.9 C 58.6 140.9 63.8 136.3 68.5 131.5 C 73.8 126.0 79.0 122.1 86.4 122.1 C 89.8 122.1 92.4 122.9 93.6 123.6 C 87.4 125.2 83.3 128.5 80.9 134.0 C 78.0 141.0 75.7 148.7 66.3 149.9 C 68.4 151.3 71.8 152.5 75.6 152.5 C 92.5 152.5 95.7 138.7 107.2 138.7 C 115.4 138.7 119.9 150.1 108.5 157.7 C 117.8 158.4 127.9 155.5 136.1 146.7 C 145.1 137.1 144.0 125.7 146.7 118.9 C 150.1 110.2 157.3 110.2 161.6 110.7 C 162.3 105.9 164.1 100.1 168.5 97.3 C 177.7 91.3 192.3 89.2 198.8 74.9 " fill="#FBA211"></path></g></g></g></svg>