<?xml version="1.0" encoding="UTF-8" standalone="no"?><svg xmlns="http://www.w3.org/2000/svg" xmlns:xlink="http://www.w3.org/1999/xlink" clip-rule="evenodd" stroke-miterlimit="4.00" viewBox="0 0 122 26"><desc>SVG generated by Keynote</desc><defs></defs><g transform="matrix(1.00, 0.00, -0.00, -1.00, 0.0, 26.0)"><g><clipPath id="clip-435"><path d="M 1.0 25.0 L 121.0 25.0 L 121.0 1.0 L 1.0 1.0 Z M 1.0 25.0 "></path></clipPath><g clip-path="url(#clip-435)"><g><clipPath id="clip-436"><path d="M 1.0 1.0 L 121.0 1.0 L 121.0 25.0 L 1.0 25.0 Z M 1.0 1.0 "></path></clipPath><g clip-path="url(#clip-436)"><text xml:space="preserve" font-family="GillSans" font-size="14.0" fill="#424242" transform="matrix(1.00, 0.00, -0.00, -1.00, 5.0, 8.0)">J</text><text xml:space="preserve" font-family="GillSans" font-size="14.0" fill="#424242" transform="matrix(1.00, 0.00, -0.00, -1.00, 8.5, 8.0)">a</text><text xml:space="preserve" font-family="GillSans" font-size="14.0" fill="#424242" transform="matrix(1.00, 0.00, -0.00, -1.00, 14.5, 8.0)">n</text><text xml:space="preserve" font-family="GillSans" font-size="14.0" fill="#424242" transform="matrix(1.00, 0.00, -0.00, -1.00, 21.3, 8.0)">u</text><text xml:space="preserve" font-family="GillSans" font-size="14.0" fill="#424242" transform="matrix(1.00, 0.00, -0.00, -1.00, 28.3, 8.0)">a</text><text xml:space="preserve" font-family="GillSans" font-size="14.0" fill="#424242" transform="matrix(1.00, 0.00, -0.00, -1.00, 34.3, 8.0)">r</text><text xml:space="preserve" font-family="GillSans" font-size="14.0" fill="#424242" transform="matrix(1.00, 0.00, -0.00, -1.00, 40.3, 8.0)">y</text><text xml:space="preserve" font-family="GillSans" font-size="14.0" fill="#424242" transform="matrix(1.00, 0.00, -0.00, -1.00, 46.4, 8.0)"> </text><text xml:space="preserve" font-family="GillSans" font-size="14.0" fill="#424242" transform="matrix(1.00, 0.00, -0.00, -1.00, 50.3, 8.0)">1</text><text xml:space="preserve" font-family="GillSans" font-size="14.0" fill="#424242" transform="matrix(1.00, 0.00, -0.00, -1.00, 57.3, 8.0)">0</text><text xml:space="preserve" font-family="GillSans" font-size="14.0" fill="#424242" transform="matrix(1.00, 0.00, -0.00, -1.00, 64.3, 8.0)">,</text><text xml:space="preserve" font-family="GillSans" font-size="14.0" fill="#424242" transform="matrix(1.00, 0.00, -0.00, -1.00, 66.0, 8.0)"> </text><text xml:space="preserve" font-family="GillSans" font-size="14.0" fill="#424242" transform="matrix(1.00, 0.00, -0.00, -1.00, 69.8, 8.0)">2</text><text xml:space="preserve" font-family="GillSans" font-size="14.0" fill="#424242" transform="matrix(1.00, 0.00, -0.00, -1.00, 76.8, 8.0)">0</text><text xml:space="preserve" font-family="GillSans" font-size="14.0" fill="#424242" transform="matrix(1.00, 0.00, -0.00, -1.00, 83.8, 8.0)">1</text><text xml:space="preserve" font-family="GillSans" font-size="14.0" fill="#424242" transform="matrix(1.00, 0.00, -0.00, -1.00, 90.8, 8.0)">7</text></g></g></g></g></g></svg>