<?xml version="1.0" encoding="UTF-8" standalone="no"?><svg xmlns="http://www.w3.org/2000/svg" xmlns:xlink="http://www.w3.org/1999/xlink" clip-rule="evenodd" stroke-miterlimit="4.00" viewBox="0 0 218 100"><desc>SVG generated by Keynote</desc><defs></defs><g transform="matrix(1.00, 0.00, -0.00, -1.00, 0.0, 100.0)"><g><clipPath id="clip-239"><path d="M 24.0 67.0 L 193.2 67.0 C 197.6 67.0 199.9 66.6 202.2 65.9 C 204.8 64.9 206.8 62.9 207.8 60.3 C 208.5 57.9 209.0 55.7 209.0 51.3 L 209.0 48.6 C 209.0 44.2 208.5 42.0 207.8 39.6 C 206.8 37.0 204.8 35.0 202.2 34.0 C 199.9 33.3 197.6 33.0 193.2 33.0 L 23.8 33.0 C 19.4 33.0 17.2 33.3 14.9 34.0 C 12.3 35.0 10.2 37.0 9.3 39.6 C 8.5 42.0 9.0 44.2 9.0 48.6 L 9.0 51.3 C 9.0 55.7 8.5 57.9 9.3 60.3 C 10.2 62.9 12.3 64.9 14.9 65.9 C 17.2 66.6 19.4 67.0 23.9 67.0 Z M 23.8 66.6 "></path></clipPath><g clip-path="url(#clip-239)"><g><clipPath id="clip-240"><path d="M 7.5 32.3 L 209.5 32.3 L 209.5 67.6 L 7.5 67.6 Z M 7.5 32.3 "></path></clipPath><g clip-path="url(#clip-240)"><image xlink:href="../../AAFD4A22-3068-4652-9DE8-E46BBCB03729/assets/FC54046B399680493AEEBE75C98FBF8F.png" width="1084.00" height="685.00" transform="matrix(0.64, 0.00, -0.00, -2.48, -452.0, 250.0)"></image></g></g></g></g><g><clipPath id="clip-241"><path d="M 7.5 32.3 L 209.5 32.3 L 209.5 67.6 L 7.5 67.6 Z M 7.5 32.3 "></path></clipPath><g clip-path="url(#clip-241)"><path d="M 15.3 0.0 C 10.9 0.0 8.7 0.0 6.3 0.8 C 3.7 1.7 1.7 3.7 0.8 6.3 C 0.0 8.7 0.0 10.9 0.0 15.3 L 0.0 18.0 C 0.0 22.4 0.0 24.7 0.8 27.0 C 1.7 29.6 3.7 31.7 6.3 32.6 C 8.7 33.3 10.9 33.3 15.3 33.3 L 184.7 33.3 C 189.1 33.3 191.3 33.3 193.7 32.6 C 196.3 31.7 198.3 29.6 199.2 27.0 C 200.0 24.7 200.0 22.4 200.0 18.0 L 200.0 15.3 C 200.0 10.9 200.0 8.7 199.2 6.3 C 198.3 3.7 196.3 1.7 193.7 0.8 C 191.3 0.0 189.1 0.0 184.7 0.0 L 15.3 0.0 L 15.3 0.0 Z M 15.3 0.0 " fill="none" stroke="#000000" stroke-width="2.00" transform="matrix(1.00, 0.00, 0.00, -1.00, 8.5, 66.6)"></path></g></g><g><clipPath id="clip-242"><path d="M 6.4 63.4 L 210.7 63.4 L 210.7 100.6 L 6.4 100.6 Z M 6.4 63.4 "></path></clipPath><g clip-path="url(#clip-242)"><text xml:space="preserve" font-family="Avenir-Medium" font-size="18.0" fill="#000000" transform="matrix(1.00, 0.00, -0.00, -1.00, 13.0, 76.0)">E</text><text xml:space="preserve" font-family="Avenir-Medium" font-size="18.0" fill="#000000" transform="matrix(1.00, 0.00, -0.00, -1.00, 24.0, 76.0)">f</text><text xml:space="preserve" font-family="Avenir-Medium" font-size="18.0" fill="#000000" transform="matrix(1.00, 0.00, -0.00, -1.00, 29.7, 76.0)">f</text><text xml:space="preserve" font-family="Avenir-Medium" font-size="18.0" fill="#000000" transform="matrix(1.00, 0.00, -0.00, -1.00, 35.7, 76.0)">.</text><text xml:space="preserve" font-family="Avenir-Medium" font-size="18.0" fill="#000000" transform="matrix(1.00, 0.00, -0.00, -1.00, 40.7, 76.0)"> </text><text xml:space="preserve" font-family="Avenir-Medium" font-size="18.0" fill="#000000" transform="matrix(1.00, 0.00, -0.00, -1.00, 45.7, 76.0)">s</text><text xml:space="preserve" font-family="Avenir-Medium" font-size="18.0" fill="#000000" transform="matrix(1.00, 0.00, -0.00, -1.00, 53.7, 76.0)">t</text><text xml:space="preserve" font-family="Avenir-Medium" font-size="18.0" fill="#000000" transform="matrix(1.00, 0.00, -0.00, -1.00, 60.3, 76.0)">r</text><text xml:space="preserve" font-family="Avenir-Medium" font-size="18.0" fill="#000000" transform="matrix(1.00, 0.00, -0.00, -1.00, 67.0, 76.0)">a</text><text xml:space="preserve" font-family="Avenir-Medium" font-size="18.0" fill="#000000" transform="matrix(1.00, 0.00, -0.00, -1.00, 76.3, 76.0)">i</text><text xml:space="preserve" font-family="Avenir-Medium" font-size="18.0" fill="#000000" transform="matrix(1.00, 0.00, -0.00, -1.00, 80.6, 76.0)">n</text><text xml:space="preserve" font-family="Avenir-Medium" font-size="18.0" fill="#000000" transform="matrix(1.00, 0.00, -0.00, -1.00, 90.7, 76.0)"> </text><text xml:space="preserve" font-family="Avenir-Medium" font-size="18.0" fill="#000000" transform="matrix(1.00, 0.00, -0.00, -1.00, 95.7, 76.0)">r</text><text xml:space="preserve" font-family="Avenir-Medium" font-size="18.0" fill="#000000" transform="matrix(1.00, 0.00, -0.00, -1.00, 102.3, 76.0)">a</text><text xml:space="preserve" font-family="Avenir-Medium" font-size="18.0" fill="#000000" transform="matrix(1.00, 0.00, -0.00, -1.00, 111.7, 76.0)">t</text><text xml:space="preserve" font-family="Avenir-Medium" font-size="18.0" fill="#000000" transform="matrix(1.00, 0.00, -0.00, -1.00, 118.3, 76.0)">e</text><text xml:space="preserve" font-family="Avenir-Medium" font-size="18.0" fill="#000000" transform="matrix(1.00, 0.00, -0.00, -1.00, 128.3, 76.0)"> </text><text xml:space="preserve" font-family="Avenir-Medium" font-size="18.0" fill="#000000" transform="matrix(1.00, 0.00, -0.00, -1.00, 133.3, 76.0)">[</text><text xml:space="preserve" font-family="Avenir-Medium" font-size="18.0" fill="#000000" transform="matrix(1.00, 0.00, -0.00, -1.00, 138.3, 76.0)">1</text><text xml:space="preserve" font-family="Avenir-Medium" font-size="18.0" fill="#000000" transform="matrix(1.00, 0.00, -0.00, -1.00, 148.3, 76.0)">0</text><text xml:space="preserve" font-family="Avenir-Medium" font-size="12.0" fill="#000000" transform="matrix(1.00, 0.00, -0.00, -1.00, 158.3, 82.0)">-</text><text xml:space="preserve" font-family="Avenir-Medium" font-size="12.0" fill="#000000" transform="matrix(1.00, 0.00, -0.00, -1.00, 162.1, 82.0)">1</text><text xml:space="preserve" font-family="Avenir-Medium" font-size="12.0" fill="#000000" transform="matrix(1.00, 0.00, -0.00, -1.00, 168.8, 82.0)">5</text><text xml:space="preserve" font-family="Avenir-Medium" font-size="18.0" fill="#000000" transform="matrix(1.00, 0.00, -0.00, -1.00, 175.5, 76.0)"> </text><text xml:space="preserve" font-family="Avenir-Medium" font-size="18.0" fill="#000000" transform="matrix(1.00, 0.00, -0.00, -1.00, 180.5, 76.0)">s</text><text xml:space="preserve" font-family="Avenir-Medium" font-size="12.0" fill="#000000" transform="matrix(1.00, 0.00, -0.00, -1.00, 188.5, 82.0)">-</text><text xml:space="preserve" font-family="Avenir-Medium" font-size="12.0" fill="#000000" transform="matrix(1.00, 0.00, -0.00, -1.00, 192.3, 82.0)">1</text><text xml:space="preserve" font-family="Avenir-Medium" font-size="18.0" fill="#000000" transform="matrix(1.00, 0.00, -0.00, -1.00, 198.9, 76.0)">]</text></g></g><g><clipPath id="clip-243"><path d="M -0.7 -1.1 L 22.7 -1.1 L 22.7 36.2 L -0.7 36.2 Z M -0.7 -1.1 "></path></clipPath><g clip-path="url(#clip-243)"><text xml:space="preserve" font-family="Avenir-Medium" font-size="18.0" fill="#000000" transform="matrix(1.00, 0.00, -0.00, -1.00, 6.0, 12.0)">0</text></g></g><g><clipPath id="clip-244"><path d="M 179.8 -1.1 L 218.2 -1.1 L 218.2 36.2 L 179.8 36.2 Z M 179.8 -1.1 "></path></clipPath><g clip-path="url(#clip-244)"><text xml:space="preserve" font-family="Avenir-Medium" font-size="18.0" fill="#000000" transform="matrix(1.00, 0.00, -0.00, -1.00, 186.0, 12.0)">5</text><text xml:space="preserve" font-family="Avenir-Medium" font-size="18.0" fill="#000000" transform="matrix(1.00, 0.00, -0.00, -1.00, 196.0, 12.0)">.</text><text xml:space="preserve" font-family="Avenir-Medium" font-size="18.0" fill="#000000" transform="matrix(1.00, 0.00, -0.00, -1.00, 201.0, 12.0)">0</text></g></g><g><clipPath id="clip-245"><path d="M 85.8 -1.1 L 124.2 -1.1 L 124.2 36.2 L 85.8 36.2 Z M 85.8 -1.1 "></path></clipPath><g clip-path="url(#clip-245)"><text xml:space="preserve" font-family="Avenir-Medium" font-size="18.0" fill="#000000" transform="matrix(1.00, 0.00, -0.00, -1.00, 92.0, 12.0)">2</text><text xml:space="preserve" font-family="Avenir-Medium" font-size="18.0" fill="#000000" transform="matrix(1.00, 0.00, -0.00, -1.00, 102.0, 12.0)">.</text><text xml:space="preserve" font-family="Avenir-Medium" font-size="18.0" fill="#000000" transform="matrix(1.00, 0.00, -0.00, -1.00, 107.0, 12.0)">5</text></g></g></g></svg>